<?xml version="1.0" encoding="utf-8"?>
<!-- Generator: Adobe Illustrator 27.5.0, SVG Export Plug-In . SVG Version: 6.00 Build 0)  -->
<svg version="1.1" xmlns="http://www.w3.org/2000/svg" xmlns:xlink="http://www.w3.org/1999/xlink" x="0px" y="0px"
	 viewBox="0 0 750 500" style="enable-background:new 0 0 750 500;" xml:space="preserve">
<g id="BACKGROUND">
	<rect style="fill:#1D3362;" width="750" height="500"/>
</g>
<g id="OBJECTS">
	<g>
		<defs>
			<rect id="SVGID_1_" width="750" height="500"/>
		</defs>
		<clipPath id="SVGID_00000178889338606706523940000008570385523192587650_">
			<use xlink:href="#SVGID_1_"  style="overflow:visible;"/>
		</clipPath>
		
			<path style="clip-path:url(#SVGID_00000178889338606706523940000008570385523192587650_);fill:none;stroke:#B92D3F;stroke-width:3;stroke-miterlimit:10;" d="
			M309.225,559.118c-13.147-37.048,7.183-80.098,39.789-102.059c32.606-21.96,74.327-26.111,113.415-21.924
			c39.088,4.186,76.933,15.924,115.563,23.212c19.32,3.645,40.381,5.929,57.709-3.361c23.052-12.359,31.659-40.402,46.737-61.776
			c21.61-30.635,57.875-48.119,94.538-55.953c36.663-7.834,74.508-7.245,111.955-9.04c37.447-1.795,75.727-6.28,109.176-23.211"/>
		<g style="clip-path:url(#SVGID_00000178889338606706523940000008570385523192587650_);">
			
				<line style="fill:none;stroke:#FFFFFF;stroke-width:2;stroke-miterlimit:10;stroke-dasharray:40,50,200;" x1="102.533" y1="205.719" x2="275.088" y2="26.872"/>
			
				<line style="fill:none;stroke-width:2;stroke-miterlimit:10;stroke-dasharray:40,50,200;" x1="162.596" y1="265.783" x2="335.152" y2="86.936"/>
		</g>
		<g style="clip-path:url(#SVGID_00000178889338606706523940000008570385523192587650_);">
			<g style="opacity:0.3;">
				<path d="M99.473,187.003L-0.366,87.164c-3.104-3.104-3.104-8.182,0-11.286l99.839-99.839c3.104-3.104,8.182-3.104,11.286,0
					l99.839,99.839c3.104,3.104,3.104,8.182,0,11.286l-99.839,99.839C107.655,190.107,102.576,190.107,99.473,187.003z"/>
			</g>
			<g>
				<path style="fill:#E3843A;" d="M94.473,184.003L-5.366,84.164c-3.104-3.104-3.104-8.182,0-11.286l99.839-99.839
					c3.104-3.104,8.182-3.104,11.286,0l99.839,99.839c3.104,3.104,3.104,8.182,0,11.286l-99.839,99.839
					C102.655,187.107,97.576,187.107,94.473,184.003z"/>
			</g>
		</g>
		<g style="clip-path:url(#SVGID_00000178889338606706523940000008570385523192587650_);">
			<g style="opacity:0.3;">
				<path style="fill:none;stroke:#000000;stroke-width:15;stroke-miterlimit:10;" d="M159.54,187.003L59.701,87.164
					c-3.104-3.104-3.104-8.182,0-11.286l99.839-99.839c3.104-3.104,8.182-3.104,11.286,0l99.839,99.839
					c3.104,3.104,3.104,8.182,0,11.286l-99.839,99.839C167.722,190.107,162.644,190.107,159.54,187.003z"/>
			</g>
			<g>
				<path style="fill:none;stroke:#F3D637;stroke-width:15;stroke-miterlimit:10;" d="M154.54,184.003L54.701,84.164
					c-3.104-3.104-3.104-8.182,0-11.286l99.839-99.839c3.104-3.104,8.182-3.104,11.286,0l99.839,99.839
					c3.104,3.104,3.104,8.182,0,11.286l-99.839,99.839C162.722,187.107,157.644,187.107,154.54,184.003z"/>
			</g>
		</g>
		<g style="clip-path:url(#SVGID_00000178889338606706523940000008570385523192587650_);">
			<g style="opacity:0.3;">
				<path d="M159.636,170.783L74.725,85.872c-2.64-2.64-2.64-6.959,0-9.599l84.911-84.911c2.64-2.64,6.959-2.64,9.599,0
					l84.911,84.911c2.64,2.64,2.64,6.959,0,9.599l-84.911,84.911C166.595,173.422,162.276,173.422,159.636,170.783z"/>
			</g>
			<g>
				<path style="fill:#F3D637;" d="M155.384,168.231L70.473,83.321c-2.64-2.64-2.64-6.959,0-9.599l84.911-84.911
					c2.64-2.64,6.959-2.64,9.599,0l84.911,84.911c2.64,2.64,2.64,6.959,0,9.599l-84.911,84.911
					C162.343,170.871,158.023,170.871,155.384,168.231z"/>
			</g>
		</g>
		<g style="clip-path:url(#SVGID_00000178889338606706523940000008570385523192587650_);">
			<g style="opacity:0.3;">
				<path d="M0.361,187.003l-99.839-99.839c-3.104-3.104-3.104-8.182,0-11.286L0.361-23.961c3.104-3.104,8.182-3.104,11.286,0
					l99.839,99.839c3.104,3.104,3.104,8.182,0,11.286l-99.839,99.839C8.544,190.107,3.465,190.107,0.361,187.003z"/>
			</g>
			<g>
				<path style="fill:#5292AC;" d="M-4.639,184.003l-99.839-99.839c-3.104-3.104-3.104-8.182,0-11.286l99.839-99.839
					c3.104-3.104,8.182-3.104,11.286,0l99.839,99.839c3.104,3.104,3.104,8.182,0,11.286L6.647,184.003
					C3.544,187.107-1.535,187.107-4.639,184.003z"/>
			</g>
		</g>
		<g style="clip-path:url(#SVGID_00000178889338606706523940000008570385523192587650_);">
			<g style="opacity:0.3;">
				<path d="M567.037,544.326l-81.39-81.39c-2.53-2.53-2.53-6.67,0-9.201l81.39-81.39c2.53-2.53,6.671-2.53,9.201,0l81.391,81.39
					c2.53,2.53,2.53,6.67,0,9.201l-81.391,81.39C573.708,546.856,569.567,546.856,567.037,544.326z"/>
			</g>
			<g>
				<path style="fill:#E3843A;" d="M562.961,541.88l-81.39-81.39c-2.53-2.53-2.53-6.671,0-9.201l81.39-81.39
					c2.53-2.53,6.671-2.53,9.201,0l81.391,81.39c2.53,2.53,2.53,6.67,0,9.201l-81.391,81.39
					C569.631,544.411,565.491,544.411,562.961,541.88z"/>
			</g>
		</g>
		<g style="clip-path:url(#SVGID_00000178889338606706523940000008570385523192587650_);">
			<g style="opacity:0.3;">
				<path d="M616.005,544.326l-81.39-81.39c-2.53-2.53-2.53-6.67,0-9.201l81.39-81.39c2.53-2.53,6.67-2.53,9.201,0l81.39,81.39
					c2.53,2.53,2.53,6.67,0,9.201l-81.39,81.39C622.676,546.856,618.535,546.856,616.005,544.326z"/>
			</g>
			<g>
				<path style="fill:#F3D637;" d="M611.929,541.88l-81.39-81.39c-2.53-2.53-2.53-6.671,0-9.201l81.39-81.39
					c2.53-2.53,6.67-2.53,9.201,0l81.39,81.39c2.53,2.53,2.53,6.67,0,9.201l-81.39,81.39
					C618.599,544.411,614.459,544.411,611.929,541.88z"/>
			</g>
		</g>
		<g style="clip-path:url(#SVGID_00000178889338606706523940000008570385523192587650_);">
			<g style="opacity:0.3;">
				<path d="M486.24,544.326l-81.391-81.39c-2.53-2.53-2.53-6.67,0-9.201l81.391-81.39c2.53-2.53,6.67-2.53,9.201,0l81.39,81.39
					c2.53,2.53,2.53,6.67,0,9.201l-81.39,81.39C492.91,546.856,488.77,546.856,486.24,544.326z"/>
			</g>
			<g>
				<path style="fill:#5292AC;" d="M482.164,541.88l-81.39-81.39c-2.53-2.53-2.53-6.671,0-9.201l81.39-81.39
					c2.53-2.53,6.67-2.53,9.201,0l81.39,81.39c2.53,2.53,2.53,6.67,0,9.201l-81.39,81.39
					C488.834,544.411,484.694,544.411,482.164,541.88z"/>
			</g>
		</g>
		<g style="clip-path:url(#SVGID_00000178889338606706523940000008570385523192587650_);">
			<g style="opacity:0.3;">
				<path d="M719.543,187.556l87.083,87.083l-87.083,87.083l-87.083-87.083L719.543,187.556 M719.543,166.83
					c-2.046,0-4.091,0.776-5.643,2.328l-99.839,99.839c-3.104,3.104-3.104,8.182,0,11.286l99.839,99.839
					c1.552,1.552,3.597,2.328,5.643,2.328s4.091-0.776,5.643-2.328l99.839-99.839c3.104-3.104,3.104-8.182,0-11.286l-99.839-99.839
					C723.634,167.606,721.588,166.83,719.543,166.83L719.543,166.83z"/>
			</g>
			<g>
				<path style="fill:#5292AC;" d="M714.543,184.556l87.083,87.083l-87.083,87.083l-87.083-87.083L714.543,184.556 M714.543,163.83
					c-2.046,0-4.091,0.776-5.643,2.328l-99.839,99.839c-3.104,3.104-3.104,8.182,0,11.286l99.839,99.839
					c1.552,1.552,3.597,2.328,5.643,2.328s4.091-0.776,5.643-2.328l99.839-99.839c3.104-3.104,3.104-8.182,0-11.286l-99.839-99.839
					C718.634,164.606,716.588,163.83,714.543,163.83L714.543,163.83z"/>
			</g>
		</g>
		<g style="clip-path:url(#SVGID_00000178889338606706523940000008570385523192587650_);">
			<g style="opacity:0.3;">
				<path d="M714.154,218.5l-60.413-60.413c-1.878-1.878-1.878-4.951,0-6.829l60.413-60.413c1.878-1.878,4.951-1.878,6.829,0
					l60.413,60.413c1.878,1.878,1.878,4.951,0,6.829L720.983,218.5C719.105,220.378,716.032,220.378,714.154,218.5z"/>
			</g>
			<g>
				<path style="fill:#B92D3F;" d="M711.128,216.685l-60.413-60.413c-1.878-1.878-1.878-4.951,0-6.829l60.413-60.413
					c1.878-1.878,4.951-1.878,6.829,0l60.413,60.413c1.878,1.878,1.878,4.951,0,6.829l-60.413,60.413
					C716.079,218.563,713.006,218.563,711.128,216.685z"/>
			</g>
		</g>
		<g style="clip-path:url(#SVGID_00000178889338606706523940000008570385523192587650_);">
			<g style="opacity:0.3;">
				<path d="M739.72,303.872l74.26,74.259l-74.26,74.26l-74.259-74.26L739.72,303.872 M739.72,297.302
					c-1.534,0-3.067,0.582-4.231,1.745l-74.854,74.854c-2.327,2.327-2.327,6.135,0,8.462l74.854,74.854
					c1.164,1.163,2.697,1.745,4.231,1.745s3.067-0.582,4.231-1.745l74.854-74.854c2.327-2.327,2.327-6.135,0-8.462l-74.854-74.854
					C742.787,297.884,741.253,297.302,739.72,297.302L739.72,297.302z"/>
			</g>
			<g>
				<path style="fill:#FFFFFF;" d="M735.971,301.623l74.259,74.26l-74.259,74.26l-74.26-74.26L735.971,301.623 M735.971,295.053
					c-1.534,0-3.067,0.582-4.231,1.745l-74.854,74.854c-2.327,2.327-2.327,6.135,0,8.462l74.854,74.854
					c1.163,1.163,2.697,1.745,4.231,1.745c1.534,0,3.067-0.582,4.231-1.745l74.854-74.854c2.327-2.327,2.327-6.135,0-8.462
					l-74.854-74.854C739.038,295.635,737.505,295.053,735.971,295.053L735.971,295.053z"/>
			</g>
		</g>
		<g style="clip-path:url(#SVGID_00000178889338606706523940000008570385523192587650_);">
			<g style="opacity:0.3;">
				
					<ellipse transform="matrix(0.9239 -0.3827 0.3827 0.9239 -76.5415 40.3852)" cx="63.244" cy="212.593" rx="19.923" ry="19.923"/>
			</g>
			<g>
				
					<ellipse transform="matrix(0.7071 -0.7071 0.7071 0.7071 -131.4868 104.8703)" style="fill:#B92D3F;" cx="60.846" cy="211.154" rx="19.923" ry="19.923"/>
			</g>
		</g>
		<g style="clip-path:url(#SVGID_00000178889338606706523940000008570385523192587650_);">
			<g style="opacity:0.3;">
				<path d="M603.741,339.598c0,3.399-2.755,6.154-6.154,6.154c-3.399,0-6.154-2.755-6.154-6.154s2.755-6.154,6.154-6.154
					C600.986,333.444,603.741,336.2,603.741,339.598z"/>
			</g>
			<g>
				<path style="fill:#5292AC;" d="M603,339.154c0,3.399-2.755,6.154-6.154,6.154c-3.399,0-6.154-2.755-6.154-6.154
					c0-3.399,2.755-6.154,6.154-6.154C600.245,333,603,335.755,603,339.154z"/>
			</g>
		</g>
		<g style="clip-path:url(#SVGID_00000178889338606706523940000008570385523192587650_);">
			<g style="opacity:0.3;">
				<path d="M684.727,56.378c1.559,0,2.827,1.268,2.827,2.827c0,1.559-1.268,2.827-2.827,2.827c-1.559,0-2.827-1.268-2.827-2.827
					C681.899,57.646,683.168,56.378,684.727,56.378 M684.727,49.974c-5.098,0-9.231,4.133-9.231,9.231s4.133,9.231,9.231,9.231
					c5.098,0,9.231-4.133,9.231-9.231S689.825,49.974,684.727,49.974L684.727,49.974z"/>
			</g>
			<g>
				<path style="fill:#FFFFFF;" d="M683.615,55.711c1.559,0,2.827,1.268,2.827,2.827c0,1.559-1.268,2.827-2.827,2.827
					c-1.559,0-2.827-1.268-2.827-2.827C680.788,56.979,682.057,55.711,683.615,55.711 M683.615,49.308
					c-5.098,0-9.231,4.133-9.231,9.231c0,5.098,4.133,9.231,9.231,9.231c5.098,0,9.231-4.133,9.231-9.231
					C692.846,53.44,688.714,49.308,683.615,49.308L683.615,49.308z"/>
			</g>
		</g>
		<g style="clip-path:url(#SVGID_00000178889338606706523940000008570385523192587650_);">
			<g style="opacity:0.3;">
				<path d="M-49.183,115.108l99.046,99.046L-49.183,313.2l-99.046-99.046L-49.183,115.108 M-49.183,106.344
					c-2.046,0-4.091,0.776-5.643,2.328l-99.839,99.839c-3.104,3.104-3.104,8.182,0,11.286l99.839,99.839
					c1.552,1.552,3.598,2.328,5.643,2.328c2.046,0,4.091-0.776,5.643-2.328l99.839-99.839c3.104-3.104,3.104-8.183,0-11.286
					l-99.839-99.839C-45.092,107.12-47.137,106.344-49.183,106.344L-49.183,106.344z"/>
			</g>
			<g>
				<path style="fill:#FFFFFF;" d="M-54.183,112.108l99.046,99.046L-54.183,310.2l-99.046-99.046L-54.183,112.108 M-54.183,103.344
					c-2.046,0-4.091,0.776-5.643,2.328l-99.839,99.839c-3.104,3.104-3.104,8.182,0,11.286l99.839,99.839
					c1.552,1.552,3.598,2.328,5.643,2.328c2.046,0,4.091-0.776,5.643-2.328l99.839-99.839c3.104-3.104,3.104-8.183,0-11.286
					l-99.839-99.839C-50.092,104.12-52.137,103.344-54.183,103.344L-54.183,103.344z"/>
			</g>
		</g>
		<g style="clip-path:url(#SVGID_00000178889338606706523940000008570385523192587650_);">
			
				<line style="fill:none;stroke:#FFFFFF;stroke-width:2;stroke-miterlimit:10;stroke-dasharray:40,50,200;" x1="351.611" y1="602.474" x2="524.167" y2="423.628"/>
			
				<line style="fill:none;stroke:#FFFFFF;stroke-width:2;stroke-miterlimit:10;stroke-dasharray:40,50,200;" x1="411.675" y1="662.539" x2="584.231" y2="483.692"/>
		</g>
		<g style="clip-path:url(#SVGID_00000178889338606706523940000008570385523192587650_);">
			
				<line style="fill:none;stroke:#FFFFFF;stroke-width:2;stroke-miterlimit:10;stroke-dasharray:40,50,200;" x1="640.197" y1="208.153" x2="812.753" y2="29.307"/>
			
				<line style="fill:none;stroke:#FFFFFF;stroke-width:2;stroke-miterlimit:10;stroke-dasharray:40,50,200;" x1="700.261" y1="268.217" x2="872.817" y2="89.371"/>
		</g>
		<g style="clip-path:url(#SVGID_00000178889338606706523940000008570385523192587650_);">
			
				<line style="fill:none;stroke:#5292AC;stroke-width:2;stroke-miterlimit:10;stroke-dasharray:25,20,100;" x1="93.218" y1="429.987" x2="-79.338" y2="608.833"/>
			
				<line style="fill:none;stroke:#FFFFFF;stroke-width:2;stroke-miterlimit:10;stroke-dasharray:40,50,200;" x1="33.154" y1="369.923" x2="-139.402" y2="548.769"/>
		</g>
		<g style="clip-path:url(#SVGID_00000178889338606706523940000008570385523192587650_);">
			<g>
				<g>
					
						<line style="fill:none;stroke:#B92D3F;stroke-width:3;stroke-miterlimit:10;" x1="615.286" y1="-139.902" x2="442.73" y2="38.944"/>
				</g>
				
					<line style="fill:none;stroke:#B92D3F;stroke-width:3;stroke-miterlimit:10;" x1="555.222" y1="-199.966" x2="382.666" y2="-21.12"/>
			</g>
		</g>
	</g>
</g>
</svg>
