<?xml version="1.0" encoding="utf-8"?>
<!-- Generator: Adobe Illustrator 27.5.0, SVG Export Plug-In . SVG Version: 6.00 Build 0)  -->
<svg version="1.1" xmlns="http://www.w3.org/2000/svg" xmlns:xlink="http://www.w3.org/1999/xlink" x="0px" y="0px"
	 viewBox="0 0 750 500" style="enable-background:new 0 0 750 500;" xml:space="preserve">
<g id="BACKGROUND">
	<rect style="fill:#24003A;" width="750" height="500"/>
</g>
<g id="OBJECTS">
	<g>
		<defs>
			<rect id="SVGID_1_" width="750" height="500"/>
		</defs>
		<clipPath id="SVGID_00000016790343243619246900000016160082818865371052_">
			<use xlink:href="#SVGID_1_"  style="overflow:visible;"/>
		</clipPath>
		
			<linearGradient id="SVGID_00000120534584559551721380000002156567090114878904_" gradientUnits="userSpaceOnUse" x1="502.6046" y1="313.7071" x2="419.0875" y2="552.2263">
			<stop  offset="0" style="stop-color:#FF1E61"/>
			<stop  offset="1" style="stop-color:#FF1E61;stop-opacity:0"/>
		</linearGradient>
		
			<path style="clip-path:url(#SVGID_00000016790343243619246900000016160082818865371052_);fill:url(#SVGID_00000120534584559551721380000002156567090114878904_);" d="
			M437.938,430.063c-20.19-4.729-32.999-15.807-45.116-46.272c-7.456-18.746-21.81-35.311-42.927-37.042
			c-37.445-3.069-58.506,12.809-90.701,64.045c-34.376,54.706-53.5,72.492-71.579,89.206h499.52
			c-45.533-17.327-66.048-30.708-105.235-71.944C545.69,389.954,480.529,440.039,437.938,430.063z"/>
		
			<linearGradient id="SVGID_00000101067349695208500120000016597859360762096042_" gradientUnits="userSpaceOnUse" x1="388.5245" y1="274.6765" x2="331.384" y2="526.3521">
			<stop  offset="0" style="stop-color:#FF1E61"/>
			<stop  offset="1" style="stop-color:#FF1E61;stop-opacity:0"/>
		</linearGradient>
		
			<path style="clip-path:url(#SVGID_00000016790343243619246900000016160082818865371052_);fill:url(#SVGID_00000101067349695208500120000016597859360762096042_);" d="
			M496.818,447.294c-45.552,3.307-100.261,38.527-139.575,4.173c-13.018-11.376-20.44-24.445-38.682-30.4
			c-22.745-7.425-47.514,0.095-68.656,8.073c-45.986,17.354-87.877,42.033-129.598,65.92c-7.006,4.011-14.491,8.284-22.331,12.251
			h475.462c-5.331-14.63-9.786-27.747-23.465-43.115C536.796,449.39,517.777,445.772,496.818,447.294z"/>
		
		
			<path style="clip-path:url(#SVGID_00000016790343243619246900000016160082818865371052_);fill:url(#SVGID_00000114063736309714432680000010646390739331141252_);" d="
			M687.596,94.71c-27.854,25.187-65.48,62.918-62.954,89.517s16.918,31.595,35.969,37.447c19.051,5.852,39.535,10.023,41.484,30.069
			c1.949,20.046-12.807,33.41-20.046,61.809c-9.203,36.102,21.938,61.391,67.951,78.341V-2.352
			C743.076,33.313,721.804,63.777,687.596,94.71z"/>
		
			<linearGradient id="SVGID_00000000927802383851232770000003785771751599470476_" gradientUnits="userSpaceOnUse" x1="130.1429" y1="183.7226" x2="-43.622" y2="264.9211">
			<stop  offset="0" style="stop-color:#A60082"/>
			<stop  offset="1" style="stop-color:#46005B"/>
		</linearGradient>
		
			<path style="opacity:0.29;clip-path:url(#SVGID_00000016790343243619246900000016160082818865371052_);fill:url(#SVGID_00000000927802383851232770000003785771751599470476_);" d="
			M52.084,402.178c26.583-7.628,45.274-26.472,44.443-47.56c-0.761-19.322-15.796-35.703-14.104-51.902
			c1.753-16.779,13.472-29.948,21.682-43.928c15.295-26.046,36.022-64.189,4.953-86.701c-26.583-19.262-59.771-26.835-82.774-52.364
			C10.929,102.681-0.376,85.209-6.377,64.366v344.185C11.337,409.413,31.882,407.974,52.084,402.178z"/>
		
			<linearGradient id="SVGID_00000086649303929709644560000006307010146021962380_" gradientUnits="userSpaceOnUse" x1="-44.6872" y1="315.4658" x2="84.2658" y2="81.2342">
			<stop  offset="0" style="stop-color:#FFD060"/>
			<stop  offset="1" style="stop-color:#FFFF60;stop-opacity:0.9567"/>
		</linearGradient>
		
			<path style="clip-path:url(#SVGID_00000016790343243619246900000016160082818865371052_);fill:none;stroke:url(#SVGID_00000086649303929709644560000006307010146021962380_);stroke-width:0.8089;stroke-miterlimit:10;" d="
			M40.943,305.362c15.474-34.712-11.679-84.613,21.205-111.284c19.914-16.151,65.204-2.77,69.467-36.992
			c4.137-33.206-21.425-76.179-56.456-71.781c-24.064,3.021-46.319,31.979-71.688,23.636c-7.112-2.339-12.627-7.992-16.817-15.426
			v238.736C4.353,342.567,31.604,326.311,40.943,305.362z"/>
		
			<linearGradient id="SVGID_00000085930168940150966120000000022673715416185999_" gradientUnits="userSpaceOnUse" x1="-48.2038" y1="304.4324" x2="69.5078" y2="90.6198">
			<stop  offset="0" style="stop-color:#FFD060"/>
			<stop  offset="1" style="stop-color:#FFFF60;stop-opacity:0.9567"/>
		</linearGradient>
		
			<path style="clip-path:url(#SVGID_00000016790343243619246900000016160082818865371052_);fill:url(#SVGID_00000085930168940150966120000000022673715416185999_);" d="
			M29.175,312.895c26.802-29.086-12.331-104.339,20.554-131.009c19.914-16.151,59.525,1.409,66.466-28.174
			c4.91-20.93-14.682-60.268-49.713-55.871c-24.064,3.021-46.319,31.979-71.688,23.636c-7.112-2.339-12.627-7.992-16.817-15.426
			v211.352C-17.538,324.728,10.223,333.461,29.175,312.895z"/>
		
			<path style="clip-path:url(#SVGID_00000016790343243619246900000016160082818865371052_);fill:none;stroke:#D51E61;stroke-width:2;stroke-miterlimit:10;" d="
			M252.004,556.505c13.107-27.094,27.669-51.974,55.867-64.902c32.716-14.999,64.767-0.445,98.032,4.682
			c37.206,5.735,72.301,5.187,98.489-14.041c30.158-22.143,36.351-41.209,47.554-70.641c11.906-31.278,26.547-56.094,56.506-51.532
			c28.229,4.299,46.215,58.511,93.106,55.887c29.751-1.665,31.152-20.946,65.526-16.917"/>
		
			<linearGradient id="SVGID_00000103253162475545207330000014994153812496231309_" gradientUnits="userSpaceOnUse" x1="111.9068" y1="104.854" x2="120.3472" y2="89.5228" gradientTransform="matrix(0.9988 -0.048 0.048 0.9988 -51.0299 175.405)">
			<stop  offset="0" style="stop-color:#FFD060"/>
			<stop  offset="1" style="stop-color:#FFFF60;stop-opacity:0.9567"/>
		</linearGradient>
		
			<path style="clip-path:url(#SVGID_00000016790343243619246900000016160082818865371052_);fill:url(#SVGID_00000103253162475545207330000014994153812496231309_);" d="
			M77.707,267.412c0.227,4.713-3.411,8.718-8.124,8.945c-4.713,0.227-8.718-3.411-8.945-8.124c-0.227-4.713,3.411-8.718,8.124-8.945
			C73.476,259.061,77.48,262.698,77.707,267.412z"/>
		
			<ellipse transform="matrix(0.2288 -0.9735 0.9735 0.2288 381.9283 791.4984)" style="clip-path:url(#SVGID_00000016790343243619246900000016160082818865371052_);fill:none;stroke:#D51E61;stroke-width:2;stroke-miterlimit:10;" cx="690.495" cy="154.706" rx="10.039" ry="10.039"/>
		
			<ellipse transform="matrix(0.9334 -0.3588 0.3588 0.9334 -151.7015 81.4407)" style="clip-path:url(#SVGID_00000016790343243619246900000016160082818865371052_);fill:none;stroke:#D51E61;stroke-width:1.5132;stroke-miterlimit:10;" cx="143.605" cy="449.506" rx="23.622" ry="23.622"/>
		
			<ellipse transform="matrix(0.9278 -0.3731 0.3731 0.9278 -138.9957 279.139)" style="clip-path:url(#SVGID_00000016790343243619246900000016160082818865371052_);fill:none;stroke:#D51E61;stroke-width:2;stroke-miterlimit:10;" cx="651.701" cy="498.686" rx="41.952" ry="41.952"/>
		
			<path style="clip-path:url(#SVGID_00000016790343243619246900000016160082818865371052_);fill:none;stroke:#D51E61;stroke-width:2;stroke-miterlimit:10;" d="
			M136.806,41.62c0,2.155-1.747,3.903-3.903,3.903c-2.155,0-3.903-1.747-3.903-3.903s1.747-3.903,3.903-3.903
			C135.058,37.717,136.806,39.464,136.806,41.62z"/>
		
			<path style="clip-path:url(#SVGID_00000016790343243619246900000016160082818865371052_);fill:none;stroke:#D51E61;stroke-width:2;stroke-miterlimit:10;" d="
			M623.841,12.494c1.403,4.076-0.763,8.518-4.839,9.921c-4.076,1.403-8.518-0.763-9.921-4.839c-1.403-4.076,0.763-8.518,4.839-9.921
			C617.996,6.252,622.438,8.418,623.841,12.494z"/>
		
			<linearGradient id="SVGID_00000080898471651269392040000006302044242026524847_" gradientUnits="userSpaceOnUse" x1="727.9543" y1="154.2994" x2="750.0507" y2="372.9951">
			<stop  offset="0" style="stop-color:#FFD060"/>
			<stop  offset="1" style="stop-color:#FFFF60;stop-opacity:0.9567"/>
		</linearGradient>
		
			<path style="clip-path:url(#SVGID_00000016790343243619246900000016160082818865371052_);fill:url(#SVGID_00000080898471651269392040000006302044242026524847_);" d="
			M714.417,180.893c1.795,19.132,20.373,30.886,23.807,49.695c3.479,19.059-1.558,36.69-13.238,65.862
			c-12.621,31.525-2.237,60.28,25.014,63.157v-239.83C738.263,149.781,712.436,159.778,714.417,180.893z"/>
		
			<linearGradient id="SVGID_00000043447767579742981360000004370458967891986350_" gradientUnits="userSpaceOnUse" x1="108.4624" y1="74.7262" x2="111.9602" y2="68.3727" gradientTransform="matrix(0.9988 -0.048 0.048 0.9988 -51.0299 175.405)">
			<stop  offset="0" style="stop-color:#FFD060"/>
			<stop  offset="1" style="stop-color:#FFFF60;stop-opacity:0.9567"/>
		</linearGradient>
		
			<path style="clip-path:url(#SVGID_00000016790343243619246900000016160082818865371052_);fill:url(#SVGID_00000043447767579742981360000004370458967891986350_);" d="
			M65.834,241.789c0.094,1.953-1.413,3.613-3.367,3.707c-1.953,0.094-3.613-1.413-3.707-3.367c-0.094-1.953,1.413-3.613,3.367-3.707
			C64.08,238.329,65.74,239.836,65.834,241.789z"/>
		
			<linearGradient id="SVGID_00000078755072583809386630000006364926739802393473_" gradientUnits="userSpaceOnUse" x1="715.0171" y1="292.2798" x2="721.1525" y2="281.1355">
			<stop  offset="0" style="stop-color:#FFD060"/>
			<stop  offset="1" style="stop-color:#FFFF60;stop-opacity:0.9567"/>
		</linearGradient>
		
			<circle style="clip-path:url(#SVGID_00000016790343243619246900000016160082818865371052_);fill:url(#SVGID_00000078755072583809386630000006364926739802393473_);" cx="717.726" cy="287.359" r="6.211"/>
		
			<circle style="clip-path:url(#SVGID_00000016790343243619246900000016160082818865371052_);fill:url(#SVGID_00000056428178084181289280000012053933495324378247_);" cx="218.007" cy="410.053" r="16.563"/>
		
			<linearGradient id="SVGID_00000154423265471159153820000014719698111091339159_" gradientUnits="userSpaceOnUse" x1="244.0697" y1="380.0822" x2="239.3572" y2="393.5409">
			<stop  offset="0" style="stop-color:#FF1E61"/>
			<stop  offset="1" style="stop-color:#FF1E61;stop-opacity:0"/>
		</linearGradient>
		
			<circle style="clip-path:url(#SVGID_00000016790343243619246900000016160082818865371052_);fill:url(#SVGID_00000154423265471159153820000014719698111091339159_);" cx="240.745" cy="389.577" r="5.733"/>
		
			<linearGradient id="SVGID_00000026136482894788094820000008906030002771107483_" gradientUnits="userSpaceOnUse" x1="1175.424" y1="-1420.3575" x2="1165.9991" y2="-1393.4408" gradientTransform="matrix(0.8941 -0.4479 0.4479 0.8941 -20.5944 1871.7653)">
			<stop  offset="0" style="stop-color:#FF1E61"/>
			<stop  offset="1" style="stop-color:#FF1E61;stop-opacity:0"/>
		</linearGradient>
		
			<path style="clip-path:url(#SVGID_00000016790343243619246900000016160082818865371052_);fill:url(#SVGID_00000026136482894788094820000008906030002771107483_);" d="
			M406.986,90.172c2.836,5.662,0.546,12.551-5.116,15.388c-5.662,2.837-12.551,0.546-15.388-5.116
			c-2.837-5.662-0.546-12.551,5.116-15.388C397.26,82.219,404.15,84.51,406.986,90.172z"/>
		
			<linearGradient id="SVGID_00000180363713329757692860000003172716986992385445_" gradientUnits="userSpaceOnUse" x1="1145.4091" y1="-1397.9436" x2="1143.3147" y2="-1391.962" gradientTransform="matrix(0.8941 -0.4479 0.4479 0.8941 -20.5944 1871.7653)">
			<stop  offset="0" style="stop-color:#FF1E61"/>
			<stop  offset="1" style="stop-color:#FF1E61;stop-opacity:0"/>
		</linearGradient>
		
			<path style="clip-path:url(#SVGID_00000016790343243619246900000016160082818865371052_);fill:url(#SVGID_00000180363713329757692860000003172716986992385445_);" d="
			M380.224,112.129c0.63,1.258,0.121,2.789-1.137,3.42c-1.258,0.63-2.789,0.121-3.419-1.137c-0.63-1.258-0.121-2.789,1.137-3.42
			C378.063,110.361,379.594,110.87,380.224,112.129z"/>
		
			<linearGradient id="SVGID_00000098179952037507021550000008227944859828276363_" gradientUnits="userSpaceOnUse" x1="719.1927" y1="87.5384" x2="706.1024" y2="124.9234">
			<stop  offset="0" style="stop-color:#FF1E61"/>
			<stop  offset="1" style="stop-color:#FF1E61;stop-opacity:0"/>
		</linearGradient>
		
			<circle style="clip-path:url(#SVGID_00000016790343243619246900000016160082818865371052_);fill:url(#SVGID_00000098179952037507021550000008227944859828276363_);" cx="709.958" cy="113.913" r="15.925"/>
	</g>
</g>
</svg>
