<svg id="Layer_1" data-name="Layer 1" xmlns="http://www.w3.org/2000/svg" xmlns:xlink="http://www.w3.org/1999/xlink" viewBox="0 0 320 240"><defs><style>.cls-1{fill:#ffde83;}.cls-1,.cls-2,.cls-3,.cls-4,.cls-5,.cls-8{stroke:#3a3836;stroke-width:2px;}.cls-1,.cls-2,.cls-3,.cls-4,.cls-5{stroke-linecap:round;stroke-linejoin:round;}.cls-2,.cls-4{fill:none;}.cls-2{stroke-dasharray:2 4;}.cls-3{fill:#d1dafa;}.cls-5,.cls-8{fill:#fff;}.cls-6{fill:url(#linear-gradient);}.cls-7{fill:url(#linear-gradient-2);}.cls-8{stroke-miterlimit:10;}.cls-9{fill:#3a3836;}</style><linearGradient id="linear-gradient" x1="70.49" y1="88.54" x2="144.94" y2="88.54" gradientUnits="userSpaceOnUse"><stop offset="0" stop-color="#ff7002"/><stop offset="0.01" stop-color="#ff7103"/><stop offset="0.11" stop-color="#fe7304"/><stop offset="0.5" stop-color="#fc7c0a"/><stop offset="0.52" stop-color="#fa820f"/><stop offset="0.56" stop-color="#f88914"/><stop offset="0.68" stop-color="#f88b15"/><stop offset="0.84" stop-color="#f3a125"/><stop offset="0.98" stop-color="#ecbd39"/><stop offset="1" stop-color="#ebc03b"/></linearGradient><linearGradient id="linear-gradient-2" x1="70.49" y1="104.54" x2="144.94" y2="104.54" xlink:href="#linear-gradient"/></defs><polygon class="cls-1" points="33.63 105.14 104.91 44.86 180.72 105.14 33.63 105.14"/><path class="cls-2" d="M217,69.46c-7.68-2.87-16.95-5.24-23.54-.37-5,3.67-6.67,10.62-5.37,16.64s5.13,11.21,9.5,15.55,9.34,8,13.72,12.38c9.41,9.32,16,22.38,14.47,35.54a37.46,37.46,0,0,1-7.27,17.71c-4.72,6.37-11.71,11.57-19.62,12.07-7.54.47-14.63-3.29-21.25-6.94"/><polyline class="cls-3" points="226.16 52.37 225.16 71.16 236.12 61.95"/><rect class="cls-1" x="33.63" y="105.14" width="147.09" height="107.94"/><polyline class="cls-4" points="180.72 105.14 104.91 155.33 33.63 105.14"/><polygon class="cls-5" points="54.44 119.79 54.44 67.56 161.2 67.56 161.2 118.52 104.91 155.33 54.44 119.79"/><rect class="cls-6" x="70.49" y="85.11" width="74.45" height="6.85"/><rect class="cls-7" x="70.49" y="101.11" width="74.45" height="6.85"/><rect class="cls-4" x="70.49" y="85.11" width="74.45" height="6.85"/><rect class="cls-4" x="70.49" y="101.11" width="74.45" height="6.85"/><polygon class="cls-3" points="211.49 37.98 290.24 20.56 246.53 79.17 211.49 37.98"/><line class="cls-3" x1="225.98" y1="56.74" x2="290.24" y2="20.56"/><line class="cls-5" x1="104.91" y1="155.33" x2="180.72" y2="213.08"/><path class="cls-8" d="M279.51,83.9l7,2.29-7,2.28-2.29,7-2.28-7-7-2.28,7-2.29,2.28-7Z"/><path class="cls-9" d="M168.41,33.73l4.36,1.42-4.36,1.42L167,40.93l-1.42-4.36-4.37-1.42,4.37-1.42L167,29.36Z"/><path class="cls-9" d="M259.53,139.25l4.36,1.42-4.36,1.42-1.42,4.37-1.42-4.37-4.37-1.42,4.37-1.42,1.42-4.36Z"/></svg>